<mxfile host="app.diagrams.net" modified="2023-09-13T19:01:50.709Z" agent="Mozilla/5.0 (Macintosh; Intel Mac OS X 10_15_7) AppleWebKit/537.36 (KHTML, like Gecko) Chrome/116.0.0.0 Safari/537.36" version="21.1.8" etag="zvmGUb2n66Az3yUWVbd6" type="github">
  <diagram name="Страница 1" id="5om69hgGiTIlYqvkZgwY">
    <mxGraphModel>
      <root>
        <mxCell id="0" />
        <mxCell id="1" parent="0" />
      </root>
    </mxGraphModel>
  </diagram>
</mxfile>
